<?xml version="1.0" encoding="utf-8"?>
<!-- Generator: Adobe Illustrator 22.0.0, SVG Export Plug-In . SVG Version: 6.00 Build 0)  -->
<svg version="1.1" id="Layer_1" xmlns="http://www.w3.org/2000/svg" xmlns:xlink="http://www.w3.org/1999/xlink" x="0px" y="0px"
	 viewBox="0 0 191.7 176.6" style="enable-background:new 0 0 191.7 176.6;" xml:space="preserve">
<style type="text/css">
	.st0{fill:#EE1E3A;}
</style>
<g>
	<path class="st0" d="M93.4,72.4c-3.7,1.8-7.3,3.7-10.6,6.4c-3.3,2.4-6.8,5.1-9.7,8.2c-3.1,3.1-6,6-8.8,9.1s-5.5,6.4-8.2,9.5
		c-1.5,1.5-2.7,3.1-4.2,4.9c-1.3,1.5-2.7,3.3-4,4.9c-0.5,0.5-1.3,1.5-1.8,2.7c-0.5,1.3-1.5,2.2-2.2,3.1c-0.9,0.9-1.8,1.8-2.7,2.7
		c-0.9,0.9-1.8,1.3-3.1,1.3c-1.8,0-3.3-0.9-4-2.7c-0.5-1.8-1.3-4-1.3-6c0-2.4,0-4.6,0.4-6.9s0.4-4.2,0.4-5.5
		c-0.4-4.6-0.5-9.5-1.5-14.2c-0.9-4.9-2.7-9.1-5.5-13.1c-2.4-3.7-5.8-6-9.5-7.3s-7.9-2.2-12.2-2.2c-0.9-0.4-1.8-0.5-2.7-0.9
		S0.6,65.1,0.2,64c-0.4-1.3-0.4-2.2,0.4-3.1s1.3-1.5,2.2-2.2s1.8-1.3,2.7-1.8s1.8-0.9,2.4-1.3c9.1-4.2,18.3-7.9,27.8-11
		s18.8-6,28.3-8.6c9.7-2.7,19.5-5.1,29.2-7.3s19.7-3.7,29.8-4.9c4.2-0.4,8.2-0.9,12.8-1.3c4-0.5,8.6-0.9,12.8-0.5
		c4.2,0.4,8.6,0.5,12.8,1.3c4.2,0.5,8.2,1.8,12.2,3.7c4.6,1.8,8.2,4.2,11,7.7c2.7,3.1,4.6,6.8,5.5,10.4c0.9,4,0.9,7.9,0.4,12.2
		c-0.9,4.2-2.4,8.6-4.6,12.8c-4.6,7.9-10.4,15-17.3,21.4c-6.9,6-14.1,11.9-21.4,17c-8.6,5.8-17,11.3-25.9,16.1
		c-8.9,4.7-17.9,8.8-27.4,12.8c-4.6,1.8-9.5,3.3-14.1,4.9c-4.6,1.5-9.1,2.7-14.1,4c-2.4,0.5-4.6,0.9-6.9,1.5
		c-2.4,0.4-4.9,0.9-7.3,1.3c-0.9,0-2.2,0.4-3.3,0.5c-1.1,0.2-2.4,0.5-4,0.5c-1.3,0-2.4,0-3.7,0c-1.3-0.4-2.2-0.5-3.1-1.5
		c-1.5-1.8-2.2-3.3-1.3-4.6c0.9-1.3,2.2-2.2,3.7-2.7c1.8-0.5,3.7-0.9,5.5-1.3c2.2-0.4,3.3-0.4,4.2-0.5c4.9-0.9,10-1.8,15-3.1
		s9.7-2.7,14.6-4.2c9.5-3.1,18.6-6.8,27-11c8.8-4.2,17.3-8.8,25.6-14.1c7.9-4.9,15.9-10.6,23.4-16.8c7.7-6,14.2-13.1,19.7-21
		c1.5-2.2,2.7-4.2,4-6.8c1.3-2.4,2.2-4.9,2.7-7.3c0.5-2.4,0.5-4.9,0.4-7.3c-0.4-2.4-1.5-4.9-3.7-6.9c-2.7-2.7-6-4.9-10-6
		c-4-1.3-7.7-2.2-11.3-2.7C148,31,139,31,129.9,31.9c-9.1,0.9-17.9,2.2-26.5,3.7C95.2,37,87.3,38.8,79.3,41s-15.9,4.2-23.7,6.8
		c-6,1.8-12.2,4-17.9,5.8c-6,2.2-11.9,4.2-17.7,6.9c3.7,1.3,6.8,3.1,9.7,5.5c3.1,2.4,5.1,5.1,7.3,8.8c2.4,4.9,4.2,10.4,5.1,15.5
		c0.9,5.5,1.3,11,1.5,16.4c5.1-6.4,10.6-12.4,16.4-18.6c3.7-3.7,7.3-6.9,11.3-10.6c4-3.3,7.9-6.8,12.2-9.5c0.9-0.5,2.2-1.5,3.1-2.2
		c0.9-0.9,2.2-1.3,3.3-1.5c1.3-0.5,2.4-0.5,3.7-0.4c1.3,0.5,1.8,1.3,2.4,2.4c0.5,0.9,0.5,2.2,0.4,3.3C95.4,70.6,94.5,71.5,93.4,72.4
		z"/>
</g>
</svg>
