<?xml version="1.0" encoding="utf-8"?>
<!-- Generator: Adobe Illustrator 22.0.0, SVG Export Plug-In . SVG Version: 6.00 Build 0)  -->
<svg version="1.1" id="Layer_1" xmlns="http://www.w3.org/2000/svg" xmlns:xlink="http://www.w3.org/1999/xlink" x="0px" y="0px"
	 viewBox="0 0 902.5 176.6" style="enable-background:new 0 0 902.5 176.6;" xml:space="preserve">
<style type="text/css">
	.st0{fill:#EE1E3A;}
	.st1{fill:#FFFFFF;}
</style>
<g>
	<path class="st0" d="M93.4,72.4c-3.7,1.8-7.3,3.7-10.6,6.4c-3.3,2.4-6.8,5.1-9.7,8.2c-3.1,3.1-6,6-8.8,9.1s-5.5,6.4-8.2,9.5
		c-1.5,1.5-2.7,3.1-4.2,4.9c-1.3,1.5-2.7,3.3-4,4.9c-0.5,0.5-1.3,1.5-1.8,2.7c-0.5,1.3-1.5,2.2-2.2,3.1c-0.9,0.9-1.8,1.8-2.7,2.7
		c-0.9,0.9-1.8,1.3-3.1,1.3c-1.8,0-3.3-0.9-4-2.7c-0.5-1.8-1.3-4-1.3-6c0-2.4,0-4.6,0.4-6.9s0.4-4.2,0.4-5.5
		c-0.4-4.6-0.5-9.5-1.5-14.2c-0.9-4.9-2.7-9.1-5.5-13.1c-2.4-3.7-5.8-6-9.5-7.3s-7.9-2.2-12.2-2.2c-0.9-0.4-1.8-0.5-2.7-0.9
		s-1.6-1.3-2-2.4c-0.4-1.3-0.4-2.2,0.4-3.1s1.3-1.5,2.2-2.2s1.8-1.3,2.7-1.8s1.8-0.9,2.4-1.3c9.1-4.2,18.3-7.9,27.8-11
		s18.8-6,28.3-8.6c9.7-2.7,19.5-5.1,29.2-7.3s19.7-3.7,29.8-4.9c4.2-0.4,8.2-0.9,12.8-1.3c4-0.5,8.6-0.9,12.8-0.5s8.6,0.5,12.8,1.3
		c4.2,0.5,8.2,1.8,12.2,3.7c4.6,1.8,8.2,4.2,11,7.7c2.7,3.1,4.6,6.8,5.5,10.4c0.9,4,0.9,7.9,0.4,12.2c-0.9,4.2-2.4,8.6-4.6,12.8
		c-4.6,7.9-10.4,15-17.3,21.4c-6.9,6-14.1,11.9-21.4,17c-8.6,5.8-17,11.3-25.9,16.1c-8.9,4.7-17.9,8.8-27.4,12.8
		c-4.6,1.8-9.5,3.3-14.1,4.9c-4.6,1.5-9.1,2.7-14.1,4c-2.4,0.5-4.6,0.9-6.9,1.5c-2.4,0.4-4.9,0.9-7.3,1.3c-0.9,0-2.2,0.4-3.3,0.5
		c-1.1,0.2-2.4,0.5-4,0.5c-1.3,0-2.4,0-3.7,0c-1.3-0.4-2.2-0.5-3.1-1.5c-1.5-1.8-2.2-3.3-1.3-4.6s2.2-2.2,3.7-2.7
		c1.8-0.5,3.7-0.9,5.5-1.3c2.2-0.4,3.3-0.4,4.2-0.5c4.9-0.9,10-1.8,15-3.1s9.7-2.7,14.6-4.2c9.5-3.1,18.6-6.8,27-11
		c8.8-4.2,17.3-8.8,25.6-14.1c7.9-4.9,15.9-10.6,23.4-16.8c7.7-6,14.2-13.1,19.7-21c1.5-2.2,2.7-4.2,4-6.8c1.3-2.4,2.2-4.9,2.7-7.3
		c0.5-2.4,0.5-4.9,0.4-7.3c-0.4-2.4-1.5-4.9-3.7-6.9c-2.7-2.7-6-4.9-10-6c-4-1.3-7.7-2.2-11.3-2.7c-8.9-1.3-17.9-1.3-27-0.4
		s-17.9,2.2-26.5,3.7C95.2,37,87.3,38.8,79.3,41s-15.9,4.2-23.7,6.8c-6,1.8-12.2,4-17.9,5.8c-6,2.2-11.9,4.2-17.7,6.9
		c3.7,1.3,6.8,3.1,9.7,5.5c3.1,2.4,5.1,5.1,7.3,8.8c2.4,4.9,4.2,10.4,5.1,15.5c0.9,5.5,1.3,11,1.5,16.4c5.1-6.4,10.6-12.4,16.4-18.6
		c3.7-3.7,7.3-6.9,11.3-10.6c4-3.3,7.9-6.8,12.2-9.5c0.9-0.5,2.2-1.5,3.1-2.2c0.9-0.9,2.2-1.3,3.3-1.5c1.3-0.5,2.4-0.5,3.7-0.4
		c1.3,0.5,1.8,1.3,2.4,2.4c0.5,0.9,0.5,2.2,0.4,3.3C95.4,70.6,94.5,71.5,93.4,72.4z"/>
	<path class="st1" d="M266.1,105.8c-2.4,0.4-5.1,0.5-7.7,1.3c-2.4,0.5-5.1,1.3-7.7,1.8c-6.8,1.5-13.3,3.1-19.7,4.6
		c-6.8,1.5-13.3,2.4-20.1,3.1c-1.8,0.4-3.7,0.4-5.5,0.5c-1.8,0-4,0-5.8-0.4s-4-0.5-5.5-1.3c-1.8-0.5-3.3-1.5-4.9-2.7
		c-1.3-0.9-2.2-2.2-3.1-3.7c-0.5-1.3-1.3-2.7-1.3-4.2c-0.4-1.5,0-2.7,0.4-4.2s1.3-2.7,2.4-3.7c0.9-0.9,2.2-1.5,3.7-1.8
		c1.8-0.5,3.7-0.9,5.8-1.3s4.2-0.4,6.4-0.4s4,0.5,5.5,1.3c1.5,0.5,2.7,1.5,3.3,2.7c0.5,1.3,0.5,2.7-0.4,4.6
		c-0.5,1.3-1.5,2.4-3.1,2.7c-1.3,0.5-2.7,0.9-4.6,1.3c-1.5,0.4-3.3,0.4-5.1,0s-3.3-0.4-4.6-0.5c0.4,0.4,1.3,0.9,2.7,1.3
		c1.3,0.4,2.7,0.5,4.2,0.5s3.1,0.4,4.2,0.4c1.3,0,2.2,0,2.4,0c5.5-0.4,11-1.3,16.4-2.4s10.6-2.4,16.1-3.7c4-0.9,7.9-1.8,11.5-2.7
		c4-0.9,7.7-1.5,11.5-2.2c1.8,0,3.1,0.4,4.2,1.3c1.3,0.9,1.8,1.8,2.2,3.1c0.4,1.3,0.4,2.2-0.4,3.3
		C269.2,105.3,268,105.8,266.1,105.8z"/>
	<path class="st1" d="M343.9,105.8c-2.4,0.4-5.1,0.5-7.7,1.3c-2.4,0.5-5.1,1.3-7.7,1.8c-6.8,1.5-13.3,3.1-19.7,4.6
		c-6.8,1.5-13.3,2.4-20.1,3.1c-1.8,0.4-3.7,0.4-5.5,0.5c-1.8,0-4,0-5.8-0.4s-4-0.5-5.5-1.3c-1.8-0.5-3.3-1.5-4.9-2.7
		c-1.3-0.9-2.2-2.2-3.1-3.7c-0.5-1.3-1.3-2.7-1.3-4.2c-0.4-1.5,0-2.7,0.4-4.2s1.3-2.7,2.4-3.7c0.9-0.9,2.2-1.5,3.7-1.8
		c1.8-0.5,3.7-0.9,5.8-1.3c2.2-0.4,4.2-0.4,6.4-0.4s4,0.5,5.5,1.3c1.5,0.5,2.7,1.5,3.3,2.7c0.5,1.3,0.5,2.7-0.4,4.6
		c-0.5,1.3-1.5,2.4-3.1,2.7c-1.3,0.5-2.7,0.9-4.6,1.3c-1.5,0.4-3.3,0.4-5.1,0s-3.3-0.4-4.6-0.5c0.4,0.4,1.3,0.9,2.7,1.3
		c1.3,0.4,2.7,0.5,4.2,0.5s3.1,0.4,4.2,0.4c1.3,0,2.2,0,2.4,0c5.5-0.4,11-1.3,16.4-2.4c5.5-1.3,10.6-2.4,16.1-3.7
		c4-0.9,7.9-1.8,11.5-2.7c4-0.9,7.7-1.5,11.5-2.2c1.8,0,3.1,0.4,4.2,1.3c1.3,0.9,1.8,1.8,2.2,3.1c0.4,1.3,0.4,2.2-0.4,3.3
		C347,105.3,345.7,105.8,343.9,105.8z"/>
	<path class="st1" d="M339.4,112.6c0.9-0.5,2.2-1.3,3.3-2.2c1.3-0.9,2.7-1.5,4-2.2c0-0.9-0.4-1.3-0.5-1.5c-0.5-0.4-1.3-0.5-1.8-0.5
		c-0.5-0.4-1.5-0.4-2.2-0.4c-0.9,0-1.5-0.4-1.8-0.5c-1.5-1.3-2.2-2.7-1.5-4.6c0.5-1.8,1.5-3.1,3.1-3.7c1.8-0.5,4-0.4,6,0.4
		c2.2,0.9,4,1.8,5.1,3.1c1.5,1.5,2.4,2.7,2.7,4.2c2.4-1.3,5.5-2.4,8.6-3.7c3.3-1.3,6.4-2.2,9.7-2.7c3.1-0.5,6-0.9,8.8-0.5
		c2.7,0.4,4.6,1.5,6,3.7c0.4,0.9,0.5,1.5,0.9,2.2c2.2-0.5,4.2-1.3,6.4-1.5c2.2-0.5,4.2-1.3,6.4-1.5c1.5-0.4,3.7-0.9,5.8-1.3
		c2.2-0.5,4.2-0.9,6.4-1.5c2.2-0.4,4.2-0.5,6.4-0.5c2.2,0,4,0,5.8,0.5c1.5,0.4,2.4,1.5,3.1,3.1c0.5,1.5,0.4,2.7-0.5,4
		s-2.2,2.2-3.3,2.2c-1.5,0-2.7,0-4,0.4c-4.2,0.4-8.6,0.5-12.4,1.5c-4.2,0.5-8.2,1.5-12.2,2.4c-3.1,0.5-5.8,1.3-8.8,1.8
		c-3.1,0.5-5.8,1.3-8.8,2.2c-1.3,0.4-3.1,1.3-4.9,1.8c-2.2,0.9-3.7,1.5-4.9,2.2c-1.3,0.5-2.4,0.9-3.7,0.5c-0.9-0.4-1.8-0.9-2.4-1.8
		c-0.5-0.9-0.9-1.8-0.9-3.1s0.4-2.2,1.3-3.1l-4.6,1.8c-0.5,0.4-1.3,0.5-2.2,0.9c-0.5,0.4-1.5,0.5-2.2,0.9c-0.9,2.4-2.4,4.9-4.2,7.3
		c-1.8,2.4-4,4.6-6,6.8c-2.2,2.2-4.2,4-6.4,5.5c-2.2,1.8-3.7,3.1-5.1,4c-1.3,0.9-2.4,1.8-4,2.7c-1.5,0.9-3.1,1.8-4.9,2.7
		c-1.8,0.5-3.3,1.3-5.1,1.3c-1.8,0.4-3.3-0.4-4.6-1.3c-1.3-0.9-1.8-1.8-2.2-2.7c-0.4-0.9-0.5-2.2-0.4-3.1c0.4-1.3,0.5-2.2,0.9-3.3
		c0.5-1.3,1.3-2.2,1.8-3.1c3.1-4,6.8-7.7,11-10.6C330.6,117.7,335.2,115,339.4,112.6z M336.6,123.2c0.9-0.9,1.5-1.5,2.2-2.2
		c0.5-0.5,1.5-1.5,2.2-2.4c-1.3,0.5-2.2,1.3-3.3,2.2c-0.9,0.5-2.2,1.5-3.1,2.2c-1.8,1.3-4.2,3.1-6.8,5.1c-2.7,2.2-4.6,4.2-6,6.9
		c2.7-1.3,5.5-2.7,7.9-5.1C332.8,127.6,334.8,125.4,336.6,123.2z"/>
	<path class="st1" d="M668.3,17.6c0,2.4-0.5,4.9-1.5,7.3c-0.9,2.4-2.2,4.6-3.7,6.8s-3.1,4.2-4.6,6.4s-3.1,4-4.6,5.8
		c-4,4.9-8.2,9.7-12.8,14.2c-4.2,4.6-8.8,9.1-13.3,13.7c-10,9.7-20.5,19.2-30.7,27.9c-10.4,9.1-21.5,17.7-32.9,25.6
		c-2.2,1.5-4.6,3.1-6.9,4.9c-2.7,1.8-5.5,3.3-8.2,4.9s-5.8,2.7-8.6,3.7c-3.1,0.9-5.8,1.3-8.6,0.9c-2.4-0.4-4.2-1.3-5.8-2.7
		c-1.5-1.5-2.4-3.3-3.1-5.5c-0.5-2.2-0.9-4.2-0.9-6.8c0-2.4,0.4-4.6,0.5-6.4c0.9-6,2.4-11.9,4.6-17.9c2.2-5.8,4.2-11.5,6.4-17.3
		l8.6-20.6c0.9-2.2,1.8-4.2,3.1-6.8c1.3-2.4,2.2-4.9,2.7-7.3c-1.8,0.4-3.7,0.9-5.8,1.8c-1.8,0.5-3.7,1.5-5.5,2.2
		c-4.6,2.2-9.5,4.2-13.7,6.8c-4.6,2.4-9.1,4.9-13.3,7.3c-8.6,4.9-16.8,10.4-24.7,16.1c-7.9,5.7-15.7,11.7-23,18.4
		c-3.3,3.1-6.8,6-9.7,9.5c-3.1,3.3-6,6.8-8.6,10.4c-0.9,1.3-2.2,2.7-3.1,4.6c-1.3,1.8-2.2,3.7-2.7,5.5c-0.9,1.8-1.3,3.7-1.5,5.8
		c-0.4,1.8,0,3.7,0.9,5.5c0.4,1.3,0.5,2.4,0.4,3.7c-0.4,1.3-0.5,2.2-1.3,3.1c-0.5,0.9-1.5,1.3-2.7,1.5c-0.9,0.4-2.2-0.4-3.3-1.5
		c-1.3-1.3-2.2-2.4-2.7-4.2c-0.5-1.5-0.5-3.3-0.5-5.1s0.4-3.7,0.5-5.5c0.4-1.8,0.9-3.3,1.3-4.6c1.5-4.2,3.3-8.2,6-12.2
		c2.7-3.7,5.5-7.3,8.8-10.6c3.3-3.3,6.8-6.8,10.4-9.7c3.7-2.9,6.9-5.8,10.4-8.8c7.7-6.4,15.9-12.2,24.1-17.7
		c8.2-5.5,16.8-10.6,25.6-15.9c4-2.2,7.9-4.2,11.9-6.4s7.9-4,12.2-5.5c2.2-0.9,4.6-1.8,6.9-2.7c2.4-0.9,4.9-1.3,7.3-1.3
		s4,0.5,4.9,2.7c0.5,1.8,0.9,4.2,0.5,6.9s-1.3,5.8-2.4,9.5c-1.3,3.3-2.4,6.8-3.7,9.7c-1.3,3.1-2.4,6-3.7,8.6c-1.3,2.4-1.8,4-2.2,4.9
		c-2.2,5.1-4.2,10.4-6,15.5c-2.2,5.1-3.7,10.4-5.5,15.9c-0.4,0.9-0.5,2.2-1.3,4c-0.5,1.8-0.9,3.7-1.3,5.5c-0.4,1.8-0.4,3.7-0.4,5.5
		c0,1.8,0.5,2.7,1.8,3.3c1.3,0.4,2.7,0,4.2-0.4s3.1-0.9,4.6-1.8c1.5-0.5,3.1-1.5,4.2-2.4c1.5-0.9,2.7-1.5,4-2.2
		c8.6-5.1,16.4-10.6,23.7-16.4c7.3-5.5,14.2-11,21.4-17C602.5,85,609.1,79,615.8,73c6.4-6,12.4-12.2,18.6-18.6
		c6-6.4,11.5-13.1,17-20.1c1.8-2.4,3.7-5.1,4.9-7.7s2.4-5.1,3.7-8.2c0.4-1.3,0.9-2.4,1.5-3.3c0.5-0.9,1.5-1.5,3.1-1.5
		c1.3,0,2.4,0.5,3.3,1.5C667.7,15.2,668.3,16.5,668.3,17.6z"/>
	<path class="st1" d="M695.3,105.8c-5.8,0-11.5,0.4-17.3,0.4c-5.8,0.4-11.9-0.5-17.3-1.8c-0.4,0-0.9,0-1.3-0.4
		c-0.5,1.8-1.5,3.7-3.1,5.5c-1.3,1.8-2.7,3.3-4.2,4.6c-1.5,1.3-3.3,2.2-5.1,2.7s-3.7,0.5-5.5,0.4c-1.5-0.4-3.1-1.3-3.7-2.4
		c-0.9-1.3-1.3-2.7-1.5-4.2c0-1.5,0-3.1,0.5-4.6s1.3-3.1,2.2-4.2c1.5-1.8,3.3-3.1,5.5-4s4.6-0.9,6.8-0.4c0.4-1.5,1.3-2.7,2.7-3.7
		c1.5-0.9,3.3-0.9,4.9,0.4c1.5,0.9,3.3,1.8,5.5,2.2c1.8,0.5,4,0.9,6,0.9s4.2,0,6.4,0s4,0,6,0s4.6,0,7.3-0.4c2.4-0.4,4.9,0,6.9,0.5
		c1.3,0.5,2.2,1.3,2.7,2.2c0.5,0.9,0.5,2.2,0.5,3.1c-0.4,0.9-0.5,1.8-1.5,2.7C697.8,105.6,696.9,105.8,695.3,105.8z M645.4,108
		c0.4-0.4,0.9-0.5,2.2-0.5V106c-0.4,0.4-0.5,0.5-0.9,0.5C646,107.1,645.8,107.7,645.4,108z"/>
	<path class="st1" d="M695.7,96.9c1.5,0,2.7,0.4,3.7,0.9c0.9,0.5,1.5,1.3,1.8,2.4c0.4,0.9,0.5,2.2,0.5,3.3c0,1.3,0,2.4-0.4,3.3
		c2.7,0,5.1-0.5,7.7-1.8c2.4-1.3,4.9-2.4,7.3-4c2.4-1.5,4.9-3.1,7.3-4.2s4.9-2.2,7.7-2.7c2.2-0.4,4.2-0.4,6.4-0.4s4.6,0.4,6.8,0.5
		c2.4,0.4,4.6,0.5,6.8,1.3c2.2,0.4,4.2,0.5,6.4,0.9c0.9,0,2.2,0,3.3,0s2.4,0,4,0c1.3,0,2.4,0.4,3.7,0.4c1.3,0.4,2.2,0.5,3.1,1.3
		c0.9,0.9,1.5,1.8,1.8,3.1c0.4,1.3,0,2.4-0.9,3.3c-0.9,1.3-2.2,1.8-3.7,1.8s-2.7,0-4.2,0c-2.7,0-5.5-0.4-7.9-0.9
		c-2.7-0.4-5.5-0.9-7.9-1.3s-5.5-0.5-7.9-0.9s-5.1-0.4-7.9,0c-2.4,0.5-4.6,1.3-6.9,2.4c-2.4,1.3-4.6,2.2-6.8,3.1
		c-2.2,1.3-4.6,2.2-6.8,3.3c-2.2,1.3-4.6,2.2-6.8,2.7c-1.3,0.4-2.7,0.9-4.2,1.3s-3.1,0.4-4.6-0.4c-2.7-0.9-4.2-2.4-4.6-4.2
		c-0.4-1.8-0.4-4,0-6.4c-0.5-0.5-1.3-1.5-1.3-2.4c-0.4-0.9-0.4-1.8,0-2.7c0.4-0.9,0.5-1.5,1.5-2.2C693.5,97.1,694.4,96.9,695.7,96.9
		z"/>
	<path class="st1" d="M847.8,105.8c-2.4,0.4-5.1,0.5-7.7,1.3c-2.4,0.5-5.1,1.3-7.7,1.8c-6.8,1.5-13.3,3.1-19.7,4.6
		c-6.8,1.5-13.3,2.4-20.1,3.1c-1.8,0.4-3.7,0.4-5.5,0.5c-1.8,0.4-4,0-5.8-0.4s-4-0.5-5.5-1.3c-1.8-0.5-3.3-1.5-4.9-2.7
		c-1.3-0.9-2.2-2.2-3.1-3.7c-0.5-1.3-1.3-2.7-1.3-4.2c-0.4-1.5,0-2.7,0.4-4.2s1.3-2.7,2.4-3.7c0.9-0.9,2.2-1.5,3.7-1.8
		c1.8-0.5,3.7-0.9,5.8-1.3s4.2-0.4,6.4-0.4s4,0.5,5.5,1.3c1.5,0.5,2.7,1.5,3.3,2.7c0.5,1.3,0.5,2.7-0.4,4.6
		c-0.5,1.3-1.5,2.4-3.1,2.7c-1.3,0.5-2.7,0.9-4.6,1.3s-3.3,0.4-5.1,0s-3.3-0.4-4.6-0.5c0.4,0.4,1.3,0.9,2.7,1.3
		c1.3,0.4,2.7,0.5,4.2,0.5s3.1,0.4,4.2,0.4c1.3,0,2.2,0,2.4,0c5.5-0.4,11-1.3,16.4-2.4c5.5-1.3,10.6-2.4,16.1-3.7
		c4-0.9,7.9-1.8,11.5-2.7c4-0.9,7.7-1.5,11.5-2.2c1.5,0,3.1,0.4,4.2,1.3c1.3,0.9,1.8,1.8,2.2,3.1c0.4,1.3,0.4,2.2-0.4,3.3
		C850.7,105.3,849.6,105.8,847.8,105.8z"/>
	<path class="st1" d="M901.3,56.7c-5.1,3.7-10,7.3-14.6,11.5c-4.6,4-9.1,8.2-13.7,12.8c-2.4,2.4-4.6,4.9-6.9,7.3
		c-2.2,2.4-4.2,5.1-6.4,7.9c-0.4,0.5-1.3,1.3-1.8,2.2c-0.9,0.9-1.8,2.2-2.7,3.1c-0.9,1.3-1.8,2.4-2.7,3.7c-0.9,1.3-1.5,2.4-1.8,3.7
		c1.8-0.4,3.7-0.9,5.5-1.8c1.8-0.5,3.7-1.5,5.5-2.2c3.1-1.3,6.4-2.4,9.5-3.7s6.4-2.2,9.7-3.1c1.5-0.4,3.3-0.5,5.5-1.3
		c2.2-0.7,4-0.4,5.5,0.9c1.3,0.9,1.8,1.5,2.2,2.4s0,1.8-0.4,2.4c-0.4,0.9-0.9,1.5-1.8,2.2c-0.9,0.5-1.8,1.3-2.7,1.3
		c-1.8,0.4-4,0.9-5.8,1.3s-4,0.9-5.8,1.5c-4.6,1.5-8.8,3.3-13.1,5.1c-4.2,1.8-8.8,3.3-13.3,4.2c-1.5,0.4-3.1,0.4-4.9,0
		s-3.1-1.3-4-2.7c-1.5-2.2-1.8-4.9-0.9-7.9c0.9-3.1,2.4-5.8,4.2-8.8c1.8-3.1,4-5.5,6.4-8.2c2.4-2.4,4.2-4.6,5.5-6
		c4.6-4.9,9.5-9.7,14.1-14.6c4.9-4.6,10-9.1,15.2-13.3c1.5-1.3,3.3-2.7,5.1-4.6s4-3.1,5.8-3.3c1.3-0.4,2.2-0.4,3.1,0.4
		c0.9,0.7,1.5,1.3,1.8,2.2c0.4,0.9,0.5,1.8,0.4,2.7C902.8,55.1,902.2,56,901.3,56.7z"/>
</g>
</svg>
